<svg width="45" height="37" viewBox="0 0 45 37" fill="none" xmlns="http://www.w3.org/2000/svg">
<rect x="1" y="9" width="43" height="28" fill="white"/>
<path d="M13.1271 24.2473C13.1271 24.0327 13.201 23.8268 13.3323 23.6751C13.4637 23.5233 13.6419 23.438 13.8277 23.438H18.793C18.9788 23.438 19.157 23.5233 19.2883 23.6751C19.4197 23.8268 19.4935 24.0327 19.4935 24.2473V35H22V10H2V35H13.1271V24.2473ZM13.1271 13.8508C13.1271 13.6361 13.201 13.4303 13.3323 13.2785C13.4637 13.1267 13.6419 13.0414 13.8277 13.0414H18.793C18.9788 13.0414 19.157 13.1267 19.2883 13.2785C19.4197 13.4303 19.4935 13.6361 19.4935 13.8508V19.5872C19.4935 19.8019 19.4197 20.0077 19.2883 20.1595C19.157 20.3113 18.9788 20.3966 18.793 20.3966H13.8277C13.6419 20.3966 13.4637 20.3113 13.3323 20.1595C13.201 20.0077 13.1271 19.8019 13.1271 19.5872V13.8508ZM10.7454 29.9854C10.7454 30.2001 10.6716 30.4059 10.5402 30.5577C10.4088 30.7095 10.2306 30.7948 10.0448 30.7948H5.08091C4.89512 30.7948 4.71694 30.7095 4.58556 30.5577C4.45419 30.4059 4.38039 30.2001 4.38039 29.9854V24.2473C4.38039 24.0327 4.45419 23.8268 4.58556 23.6751C4.71694 23.5233 4.89512 23.438 5.08091 23.438H10.0462C10.232 23.438 10.4102 23.5233 10.5416 23.6751C10.673 23.8268 10.7468 24.0327 10.7468 24.2473L10.7454 29.9854ZM10.0448 20.3966H5.08091C4.89512 20.3966 4.71694 20.3113 4.58556 20.1595C4.45419 20.0077 4.38039 19.8019 4.38039 19.5872V13.8508C4.38039 13.6361 4.45419 13.4303 4.58556 13.2785C4.71694 13.1267 4.89512 13.0414 5.08091 13.0414H10.0462C10.232 13.0414 10.4102 13.1267 10.5416 13.2785C10.673 13.4303 10.7468 13.6361 10.7468 13.8508V19.5872C10.7468 19.8019 10.673 20.0077 10.5416 20.1595C10.4102 20.3113 10.2306 20.3966 10.0448 20.3966Z" fill="#0F24E6"/>
<path d="M23 35H34.1264V24.2473C34.1264 24.0327 34.2002 23.8268 34.3315 23.6751C34.4629 23.5233 34.6411 23.438 34.8268 23.438H39.7932C39.979 23.438 40.1572 23.5233 40.2885 23.6751C40.4199 23.8268 40.4937 24.0327 40.4937 24.2473V35H43V10H23V35ZM34.1264 13.8508C34.1264 13.6361 34.2002 13.4303 34.3315 13.2785C34.4629 13.1267 34.6411 13.0414 34.8268 13.0414H39.7932C39.979 13.0414 40.1572 13.1267 40.2885 13.2785C40.4199 13.4303 40.4937 13.6361 40.4937 13.8508V19.5872C40.4937 19.8019 40.4199 20.0077 40.2885 20.1595C40.1572 20.3113 39.979 20.3966 39.7932 20.3966H34.8268C34.6411 20.3966 34.4629 20.3113 34.3315 20.1595C34.2002 20.0077 34.1264 19.8019 34.1264 19.5872V13.8508ZM25.3788 13.8508C25.3788 13.6361 25.4526 13.4303 25.584 13.2785C25.7153 13.1267 25.8935 13.0414 26.0793 13.0414H31.0443C31.23 13.0414 31.4082 13.1267 31.5396 13.2785C31.6709 13.4303 31.7447 13.6361 31.7447 13.8508V19.5872C31.7447 19.8019 31.6709 20.0077 31.5396 20.1595C31.4082 20.3113 31.23 20.3966 31.0443 20.3966H26.0793C25.8935 20.3966 25.7153 20.3113 25.584 20.1595C25.4526 20.0077 25.3788 19.8019 25.3788 19.5872V13.8508ZM25.3788 24.2473C25.3788 24.0327 25.4526 23.8268 25.584 23.6751C25.7153 23.5233 25.8935 23.438 26.0793 23.438H31.0443C31.23 23.438 31.4082 23.5233 31.5396 23.6751C31.6709 23.8268 31.7447 24.0327 31.7447 24.2473V29.9854C31.7447 30.2001 31.6709 30.4059 31.5396 30.5577C31.4082 30.7095 31.23 30.7948 31.0443 30.7948H26.0793C25.8935 30.7948 25.7153 30.7095 25.584 30.5577C25.4526 30.4059 25.3788 30.2001 25.3788 29.9854V24.2473Z" fill="#ECF01A"/>
<path d="M11.5007 2L3 8H20L11.5007 2Z" fill="#B30202"/>
<path d="M33.5 2L25 8H42L33.5 2Z" fill="#B30202"/>
<path d="M25.7702 21H31.2298C31.434 21 31.63 20.9073 31.7744 20.7422C31.9188 20.5771 32 20.3532 32 20.1197V13.8803C32 13.6468 31.9188 13.4229 31.7744 13.2578C31.63 13.0927 31.434 13 31.2298 13H25.7702C25.566 13 25.3701 13.0927 25.2256 13.2578C25.0812 13.4229 25 13.6468 25 13.8803V20.1197C25 20.3532 25.0812 20.5771 25.2256 20.7422C25.3701 20.9073 25.566 21 25.7702 21ZM26.5405 14.7606H30.4595V19.2394H26.5405V14.7606Z" fill="black"/>
<path d="M35.6601 21H40.3399C40.515 21 40.6829 20.9073 40.8067 20.7422C40.9305 20.5771 41 20.3532 41 20.1197V13.8803C41 13.6468 40.9305 13.4229 40.8067 13.2578C40.6829 13.0927 40.515 13 40.3399 13H35.6601C35.485 13 35.3171 13.0927 35.1933 13.2578C35.0695 13.4229 35 13.6468 35 13.8803V20.1197C35 20.3532 35.0695 20.5771 35.1933 20.7422C35.3171 20.9073 35.485 21 35.6601 21ZM36.3201 14.7606H39.6799V19.2394H36.3201V14.7606Z" fill="black"/>
<path d="M25.7702 31H31.2298C31.434 31 31.63 30.9189 31.7744 30.7744C31.9188 30.63 32 30.4342 32 30.2299V24.7701C32 24.5658 31.9188 24.37 31.7744 24.2255C31.63 24.0811 31.434 24 31.2298 24H25.7702C25.566 24 25.3701 24.0811 25.2256 24.2255C25.0812 24.37 25 24.5658 25 24.7701V30.2299C25 30.4342 25.0812 30.63 25.2256 30.7744C25.3701 30.9189 25.566 31 25.7702 31ZM26.5405 29.4598V28.2693H30.4595V29.4598H26.5405ZM30.4595 25.5402V26.7292H26.5405V25.5402H30.4595Z" fill="black"/>
<path d="M9.33979 13H4.66021C4.48511 13 4.31718 13.0927 4.19337 13.2578C4.06956 13.4229 4 13.6468 4 13.8803V20.1197C4 20.3532 4.06956 20.5771 4.19337 20.7422C4.31718 20.9073 4.48511 21 4.66021 21H9.33979C9.51489 21 9.68282 20.9073 9.80663 20.7422C9.93044 20.5771 10 20.3532 10 20.1197V13.8803C10 13.6468 9.93044 13.4229 9.80663 13.2578C9.68282 13.0927 9.51489 13 9.33979 13ZM8.67958 14.7606V16.1197H5.32042V14.7606H8.67958ZM5.32042 19.2394V17.8803H8.67958V19.2394H5.32042Z" fill="black"/>
<path d="M13.7702 21H19.2298C19.434 21 19.63 20.9073 19.7744 20.7422C19.9188 20.5771 20 20.3532 20 20.1197V13.8803C20 13.6468 19.9188 13.4229 19.7744 13.2578C19.63 13.0927 19.434 13 19.2298 13H13.7702C13.566 13 13.3701 13.0927 13.2256 13.2578C13.0812 13.4229 13 13.6468 13 13.8803V20.1197C13 20.3532 13.0812 20.5771 13.2256 20.7422C13.3701 20.9073 13.566 21 13.7702 21ZM14.5405 14.7606H18.4595V19.2394H14.5405V14.7606Z" fill="black"/>
<path d="M9.33979 24H4.66021C4.48511 24 4.31718 24.0811 4.19337 24.2255C4.06956 24.37 4 24.5658 4 24.7701V30.2299C4 30.4342 4.06956 30.63 4.19337 30.7744C4.31718 30.9189 4.48511 31 4.66021 31H9.33979C9.51489 31 9.68282 30.9189 9.80663 30.7744C9.93044 30.63 10 30.4342 10 30.2299V24.7701C10 24.5658 9.93044 24.37 9.80663 24.2255C9.68282 24.0811 9.51489 24 9.33979 24ZM8.67958 29.4598H5.32042V25.5402H8.67958V29.4598Z" fill="black"/>
<path d="M44.9515 8.75068C44.9019 8.60749 44.8177 8.4838 44.709 8.39435C44.6962 8.38445 44.6934 8.36465 44.6805 8.35475L33.7824 0.134341C33.6665 0.0466826 33.5309 0 33.3924 0C33.2538 0 33.1183 0.0466826 33.0023 0.134341L22.4993 8.06111L11.9963 0.142588C11.8803 0.0549297 11.7448 0.00825022 11.6062 0.00825022C11.4677 0.00825022 11.3321 0.0549297 11.2161 0.142588L0.322335 8.35475C0.309499 8.36465 0.308072 8.38445 0.295236 8.39435C0.186205 8.48377 0.101577 8.60742 0.0513458 8.75068C0.0476692 8.76809 0.0448118 8.78571 0.0427875 8.80347C0.0169706 8.88099 0.00251005 8.96295 0 9.04598V36.1752C0 36.3939 0.0751341 36.6037 0.208872 36.7584C0.34261 36.9131 0.523997 37 0.713131 37H44.2869C44.476 37 44.6574 36.9131 44.7911 36.7584C44.9249 36.6037 45 36.3939 45 36.1752V9.04598C44.9968 8.96305 44.9824 8.88122 44.9572 8.80347C44.9515 8.78532 44.9515 8.76718 44.9515 8.75068ZM33.3988 1.80878L41.8936 8.22113H24.8983L33.3988 1.80878ZM11.6126 1.80878L20.1074 8.22113H3.11068L11.6126 1.80878ZM1.42626 9.87082H21.7862V35.3503H19.2346V24.3914C19.2346 24.1726 19.1594 23.9628 19.0257 23.8082C18.892 23.6535 18.7106 23.5666 18.5214 23.5666H13.4668C13.2776 23.5666 13.0962 23.6535 12.9625 23.8082C12.8288 23.9628 12.7536 24.1726 12.7536 24.3914V35.3503H1.42626V9.87082ZM14.1799 35.2926V25.2163H17.8083V35.2926H14.1799ZM35.9661 35.2926V25.2163H39.5959V35.2926H35.9661ZM43.5737 35.3503H41.0222V24.3914C41.0222 24.1726 40.947 23.9628 40.8133 23.8082C40.6795 23.6535 40.4982 23.5666 40.309 23.5666H35.2529C35.0638 23.5666 34.8824 23.6535 34.7487 23.8082C34.6149 23.9628 34.5398 24.1726 34.5398 24.3914V35.3503H23.2124V9.87082H43.5737V35.3503Z" fill="black"/>
</svg>
