<svg width="227" height="65" viewBox="0 0 227 65" fill="none" xmlns="http://www.w3.org/2000/svg">
<path fill-rule="evenodd" clip-rule="evenodd" d="M68.7435 3.48517C68.5459 3.15822 68.4346 2.78667 68.4346 2.39372C68.4346 1.0725 69.6954 0 71.2478 0C72.8009 0 74.0617 1.0725 74.0617 2.39372C74.0617 2.78667 73.9496 3.15822 73.7521 3.48517L78.8634 6.07933C79.311 6.30667 79.5847 6.71672 79.5847 7.15978C79.5847 7.15978 79.5847 7.67494 79.5847 8.06055C79.5847 8.27078 79.385 8.44067 79.1378 8.44067H77.2571V17.1178H79.1299C79.2506 17.1178 79.3663 17.1582 79.4518 17.2309C79.5372 17.3036 79.5847 17.402 79.5847 17.5047V18.7257C79.5847 18.8283 79.5372 18.9273 79.4518 18.9994C79.3663 19.0722 79.2506 19.1131 79.1299 19.1131H77.974L80.4956 55H62L64.5215 19.1131H63.3657C63.245 19.1131 63.1293 19.0722 63.0445 18.9994C62.959 18.9273 62.9109 18.8283 62.9109 18.7257V17.5047C62.9109 17.402 62.959 17.3036 63.0445 17.2309C63.1293 17.1582 63.245 17.1178 63.3657 17.1178H65.2385V8.44067H63.3577C63.1113 8.44067 62.9109 8.27078 62.9109 8.06055V7.15978C62.9109 6.71672 63.1846 6.30667 63.6322 6.07933L68.7435 3.48517ZM64.1681 40.645L63.6638 47.8225H78.8318L78.3275 40.645H64.1681ZM65.1767 26.2906L64.6724 33.4681H77.8232L77.3189 26.2906H65.1767ZM66.3958 17.1178H68.8865V8.44067H66.3958V17.1178ZM70.0438 17.1178H72.4525V8.44067H70.0438V17.1178ZM73.6098 17.1178H76.0998V8.44067H73.6098V17.1178Z" fill="black"/>
<path d="M20.745 55.45C18.105 55.45 15.69 55.015 13.5 54.145C11.31 53.245 9.42 52 7.83 50.41C6.27 48.79 5.055 46.885 4.185 44.695C3.315 42.475 2.88 40.045 2.88 37.405C2.88 34.765 3.315 32.35 4.185 30.16C5.055 27.97 6.27 26.08 7.83 24.49C9.42 22.87 11.31 21.625 13.5 20.755C15.69 19.855 18.105 19.405 20.745 19.405C23.385 19.405 25.785 19.855 27.945 20.755C30.135 21.625 32.025 22.87 33.615 24.49C35.205 26.08 36.435 27.97 37.305 30.16C38.175 32.35 38.61 34.765 38.61 37.405C38.61 40.045 38.175 42.475 37.305 44.695C36.435 46.885 35.205 48.79 33.615 50.41C32.025 52 30.135 53.245 27.945 54.145C25.785 55.015 23.385 55.45 20.745 55.45ZM20.745 51.22C22.695 51.22 24.48 50.875 26.1 50.185C27.75 49.465 29.175 48.49 30.375 47.26C31.575 46 32.49 44.53 33.12 42.85C33.78 41.17 34.11 39.355 34.11 37.405C34.11 35.455 33.78 33.64 33.12 31.96C32.49 30.28 31.575 28.825 30.375 27.595C29.175 26.335 27.75 25.36 26.1 24.67C24.48 23.98 22.695 23.635 20.745 23.635C18.795 23.635 16.995 23.98 15.345 24.67C13.725 25.36 12.315 26.335 11.115 27.595C9.945 28.825 9.03 30.28 8.37 31.96C7.71 33.64 7.38 35.455 7.38 37.405C7.38 39.355 7.71 41.17 8.37 42.85C9.03 44.53 9.945 46 11.115 47.26C12.315 48.49 13.725 49.465 15.345 50.185C16.995 50.875 18.795 51.22 20.745 51.22ZM51.3404 55C50.0204 55 48.8504 54.64 47.8304 53.92C46.8104 53.2 46.0154 52.225 45.4454 50.995C44.8754 49.735 44.5904 48.295 44.5904 46.675V22.105C44.5904 21.445 44.8004 20.905 45.2204 20.485C45.6404 20.065 46.1804 19.855 46.8404 19.855C47.5004 19.855 48.0404 20.065 48.4604 20.485C48.8804 20.905 49.0904 21.445 49.0904 22.105V46.675C49.0904 47.785 49.3004 48.7 49.7204 49.42C50.1404 50.14 50.6804 50.5 51.3404 50.5H52.4654C53.0654 50.5 53.5454 50.71 53.9054 51.13C54.2954 51.55 54.4904 52.09 54.4904 52.75C54.4904 53.41 54.2054 53.95 53.6354 54.37C53.0654 54.79 52.3304 55 51.4304 55H51.3404Z" fill="black"/>
<path d="M109.84 55.045C109.18 55.045 108.625 54.835 108.175 54.415C107.755 53.965 107.545 53.41 107.545 52.75V41.68C107.545 39.97 107.23 38.575 106.6 37.495C105.97 36.415 105.115 35.62 104.035 35.11C102.985 34.57 101.77 34.3 100.39 34.3C99.13 34.3 97.99 34.555 96.97 35.065C95.95 35.575 95.14 36.265 94.54 37.135C93.94 37.975 93.64 38.95 93.64 40.06H90.805C90.805 38.17 91.255 36.49 92.155 35.02C93.085 33.52 94.345 32.335 95.935 31.465C97.525 30.595 99.31 30.16 101.29 30.16C103.36 30.16 105.205 30.61 106.825 31.51C108.475 32.38 109.765 33.67 110.695 35.38C111.655 37.09 112.135 39.19 112.135 41.68V52.75C112.135 53.41 111.91 53.965 111.46 54.415C111.04 54.835 110.5 55.045 109.84 55.045ZM91.345 55.045C90.685 55.045 90.13 54.835 89.68 54.415C89.26 53.965 89.05 53.41 89.05 52.75V32.68C89.05 31.99 89.26 31.435 89.68 31.015C90.13 30.595 90.685 30.385 91.345 30.385C92.035 30.385 92.59 30.595 93.01 31.015C93.43 31.435 93.64 31.99 93.64 32.68V52.75C93.64 53.41 93.43 53.965 93.01 54.415C92.59 54.835 92.035 55.045 91.345 55.045ZM130.884 55.18C128.544 55.18 126.429 54.64 124.539 53.56C122.679 52.45 121.194 50.95 120.084 49.06C119.004 47.17 118.464 45.04 118.464 42.67C118.464 40.3 118.959 38.185 119.949 36.325C120.969 34.435 122.349 32.95 124.089 31.87C125.829 30.76 127.794 30.205 129.984 30.205C131.754 30.205 133.389 30.58 134.889 31.33C136.389 32.05 137.649 33.04 138.669 34.3V22.15C138.669 21.46 138.879 20.905 139.299 20.485C139.749 20.065 140.304 19.855 140.964 19.855C141.654 19.855 142.209 20.065 142.629 20.485C143.049 20.905 143.259 21.46 143.259 22.15V42.67C143.259 45.04 142.704 47.17 141.594 49.06C140.514 50.95 139.044 52.45 137.184 53.56C135.324 54.64 133.224 55.18 130.884 55.18ZM130.884 51.13C132.414 51.13 133.779 50.77 134.979 50.05C136.179 49.3 137.124 48.28 137.814 46.99C138.504 45.7 138.849 44.26 138.849 42.67C138.849 41.05 138.504 39.61 137.814 38.35C137.124 37.09 136.179 36.1 134.979 35.38C133.779 34.63 132.414 34.255 130.884 34.255C129.384 34.255 128.019 34.63 126.789 35.38C125.589 36.1 124.629 37.09 123.909 38.35C123.219 39.61 122.874 41.05 122.874 42.67C122.874 44.26 123.219 45.7 123.909 46.99C124.629 48.28 125.589 49.3 126.789 50.05C128.019 50.77 129.384 51.13 130.884 51.13ZM150.419 55C149.579 55 148.934 54.64 148.484 53.92C148.034 53.2 147.989 52.435 148.349 51.625L160.994 21.43C161.444 20.38 162.179 19.855 163.199 19.855C164.279 19.855 165.014 20.38 165.404 21.43L178.094 51.715C178.424 52.555 178.364 53.32 177.914 54.01C177.494 54.67 176.849 55 175.979 55C175.529 55 175.094 54.88 174.674 54.64C174.284 54.37 173.999 54.01 173.819 53.56L162.659 25.84H163.919L152.579 53.56C152.369 54.04 152.054 54.4 151.634 54.64C151.244 54.88 150.839 55 150.419 55ZM152.804 47.26L154.604 43.39H172.244L174.044 47.26H152.804Z" fill="black"/>
<path d="M195.127 41.2473C195.127 41.0327 195.201 40.8268 195.332 40.6751C195.464 40.5233 195.642 40.438 195.828 40.438H200.793C200.979 40.438 201.157 40.5233 201.288 40.6751C201.42 40.8268 201.494 41.0327 201.494 41.2473V52H204V27H184V52H195.127V41.2473ZM195.127 30.8508C195.127 30.6361 195.201 30.4303 195.332 30.2785C195.464 30.1267 195.642 30.0414 195.828 30.0414H200.793C200.979 30.0414 201.157 30.1267 201.288 30.2785C201.42 30.4303 201.494 30.6361 201.494 30.8508V36.5872C201.494 36.8019 201.42 37.0077 201.288 37.1595C201.157 37.3113 200.979 37.3966 200.793 37.3966H195.828C195.642 37.3966 195.464 37.3113 195.332 37.1595C195.201 37.0077 195.127 36.8019 195.127 36.5872V30.8508ZM192.745 46.9854C192.745 47.2001 192.672 47.4059 192.54 47.5577C192.409 47.7095 192.231 47.7948 192.045 47.7948H187.081C186.895 47.7948 186.717 47.7095 186.586 47.5577C186.454 47.4059 186.38 47.2001 186.38 46.9854V41.2473C186.38 41.0327 186.454 40.8268 186.586 40.6751C186.717 40.5233 186.895 40.438 187.081 40.438H192.046C192.232 40.438 192.41 40.5233 192.542 40.6751C192.673 40.8268 192.747 41.0327 192.747 41.2473L192.745 46.9854ZM192.045 37.3966H187.081C186.895 37.3966 186.717 37.3113 186.586 37.1595C186.454 37.0077 186.38 36.8019 186.38 36.5872V30.8508C186.38 30.6361 186.454 30.4303 186.586 30.2785C186.717 30.1267 186.895 30.0414 187.081 30.0414H192.046C192.232 30.0414 192.41 30.1267 192.542 30.2785C192.673 30.4303 192.747 30.6361 192.747 30.8508V36.5872C192.747 36.8019 192.673 37.0077 192.542 37.1595C192.41 37.3113 192.231 37.3966 192.045 37.3966Z" fill="#0F24E6"/>
<path d="M205 52H216.126V41.2473C216.126 41.0327 216.2 40.8268 216.332 40.6751C216.463 40.5233 216.641 40.438 216.827 40.438H221.793C221.979 40.438 222.157 40.5233 222.289 40.6751C222.42 40.8268 222.494 41.0327 222.494 41.2473V52H225V27H205V52ZM216.126 30.8508C216.126 30.6361 216.2 30.4303 216.332 30.2785C216.463 30.1267 216.641 30.0414 216.827 30.0414H221.793C221.979 30.0414 222.157 30.1267 222.289 30.2785C222.42 30.4303 222.494 30.6361 222.494 30.8508V36.5872C222.494 36.8019 222.42 37.0077 222.289 37.1595C222.157 37.3113 221.979 37.3966 221.793 37.3966H216.827C216.641 37.3966 216.463 37.3113 216.332 37.1595C216.2 37.0077 216.126 36.8019 216.126 36.5872V30.8508ZM207.379 30.8508C207.379 30.6361 207.453 30.4303 207.584 30.2785C207.715 30.1267 207.894 30.0414 208.079 30.0414H213.044C213.23 30.0414 213.408 30.1267 213.54 30.2785C213.671 30.4303 213.745 30.6361 213.745 30.8508V36.5872C213.745 36.8019 213.671 37.0077 213.54 37.1595C213.408 37.3113 213.23 37.3966 213.044 37.3966H208.079C207.894 37.3966 207.715 37.3113 207.584 37.1595C207.453 37.0077 207.379 36.8019 207.379 36.5872V30.8508ZM207.379 41.2473C207.379 41.0327 207.453 40.8268 207.584 40.6751C207.715 40.5233 207.894 40.438 208.079 40.438H213.044C213.23 40.438 213.408 40.5233 213.54 40.6751C213.671 40.8268 213.745 41.0327 213.745 41.2473V46.9854C213.745 47.2001 213.671 47.4059 213.54 47.5577C213.408 47.7095 213.23 47.7948 213.044 47.7948H208.079C207.894 47.7948 207.715 47.7095 207.584 47.5577C207.453 47.4059 207.379 47.2001 207.379 46.9854V41.2473Z" fill="#ECF01A"/>
<path d="M193.501 19L185 25H202L193.501 19Z" fill="#B30202"/>
<path d="M215.5 19L207 25H224L215.5 19Z" fill="#B30202"/>
<path d="M207.77 38H213.23C213.434 38 213.63 37.9073 213.774 37.7422C213.919 37.5771 214 37.3532 214 37.1197V30.8803C214 30.6468 213.919 30.4229 213.774 30.2578C213.63 30.0927 213.434 30 213.23 30H207.77C207.566 30 207.37 30.0927 207.226 30.2578C207.081 30.4229 207 30.6468 207 30.8803V37.1197C207 37.3532 207.081 37.5771 207.226 37.7422C207.37 37.9073 207.566 38 207.77 38ZM208.54 31.7606H212.46V36.2394H208.54V31.7606Z" fill="black"/>
<path d="M217.66 38H222.34C222.515 38 222.683 37.9073 222.807 37.7422C222.93 37.5771 223 37.3532 223 37.1197V30.8803C223 30.6468 222.93 30.4229 222.807 30.2578C222.683 30.0927 222.515 30 222.34 30H217.66C217.485 30 217.317 30.0927 217.193 30.2578C217.07 30.4229 217 30.6468 217 30.8803V37.1197C217 37.3532 217.07 37.5771 217.193 37.7422C217.317 37.9073 217.485 38 217.66 38ZM218.32 31.7606H221.68V36.2394H218.32V31.7606Z" fill="black"/>
<path d="M207.77 48H213.23C213.434 48 213.63 47.9189 213.774 47.7744C213.919 47.63 214 47.4342 214 47.2299V41.7701C214 41.5658 213.919 41.37 213.774 41.2255C213.63 41.0811 213.434 41 213.23 41H207.77C207.566 41 207.37 41.0811 207.226 41.2255C207.081 41.37 207 41.5658 207 41.7701V47.2299C207 47.4342 207.081 47.63 207.226 47.7744C207.37 47.9189 207.566 48 207.77 48ZM208.54 46.4598V45.2693H212.46V46.4598H208.54ZM212.46 42.5402V43.7292H208.54V42.5402H212.46Z" fill="black"/>
<path d="M226.952 25.7507C226.902 25.6075 226.818 25.4838 226.709 25.3943C226.696 25.3844 226.693 25.3647 226.681 25.3548L215.782 17.1343C215.666 17.0467 215.531 17 215.392 17C215.254 17 215.118 17.0467 215.002 17.1343L204.499 25.0611L193.996 17.1426C193.88 17.0549 193.745 17.0083 193.606 17.0083C193.468 17.0083 193.332 17.0549 193.216 17.1426L182.322 25.3548C182.309 25.3647 182.308 25.3844 182.295 25.3943C182.186 25.4838 182.102 25.6074 182.051 25.7507C182.048 25.7681 182.045 25.7857 182.043 25.8035C182.017 25.881 182.003 25.963 182 26.046V53.1752C182 53.3939 182.075 53.6037 182.209 53.7584C182.343 53.9131 182.524 54 182.713 54H226.287C226.476 54 226.657 53.9131 226.791 53.7584C226.925 53.6037 227 53.3939 227 53.1752V26.046C226.997 25.9631 226.982 25.8812 226.957 25.8035C226.952 25.7853 226.952 25.7672 226.952 25.7507ZM215.399 18.8088L223.894 25.2211H206.898L215.399 18.8088ZM193.613 18.8088L202.107 25.2211H185.111L193.613 18.8088ZM183.426 26.8708H203.786V52.3503H201.235V41.3914C201.235 41.1726 201.159 40.9628 201.026 40.8082C200.892 40.6535 200.711 40.5666 200.521 40.5666H195.467C195.278 40.5666 195.096 40.6535 194.963 40.8082C194.829 40.9628 194.754 41.1726 194.754 41.3914V52.3503H183.426V26.8708ZM196.18 52.2926V42.2163H199.808V52.2926H196.18ZM217.966 52.2926V42.2163H221.596V52.2926H217.966ZM225.574 52.3503H223.022V41.3914C223.022 41.1726 222.947 40.9628 222.813 40.8082C222.68 40.6535 222.498 40.5666 222.309 40.5666H217.253C217.064 40.5666 216.882 40.6535 216.749 40.8082C216.615 40.9628 216.54 41.1726 216.54 41.3914V52.3503H205.212V26.8708H225.574V52.3503Z" fill="black"/>
<path d="M191.34 30H186.66C186.485 30 186.317 30.0927 186.193 30.2578C186.07 30.4229 186 30.6468 186 30.8803V37.1197C186 37.3532 186.07 37.5771 186.193 37.7422C186.317 37.9073 186.485 38 186.66 38H191.34C191.515 38 191.683 37.9073 191.807 37.7422C191.93 37.5771 192 37.3532 192 37.1197V30.8803C192 30.6468 191.93 30.4229 191.807 30.2578C191.683 30.0927 191.515 30 191.34 30ZM190.68 31.7606V33.1197H187.32V31.7606H190.68ZM187.32 36.2394V34.8803H190.68V36.2394H187.32Z" fill="black"/>
<path d="M195.77 38H201.23C201.434 38 201.63 37.9073 201.774 37.7422C201.919 37.5771 202 37.3532 202 37.1197V30.8803C202 30.6468 201.919 30.4229 201.774 30.2578C201.63 30.0927 201.434 30 201.23 30H195.77C195.566 30 195.37 30.0927 195.226 30.2578C195.081 30.4229 195 30.6468 195 30.8803V37.1197C195 37.3532 195.081 37.5771 195.226 37.7422C195.37 37.9073 195.566 38 195.77 38ZM196.54 31.7606H200.46V36.2394H196.54V31.7606Z" fill="black"/>
<path d="M191.34 41H186.66C186.485 41 186.317 41.0811 186.193 41.2255C186.07 41.37 186 41.5658 186 41.7701V47.2299C186 47.4342 186.07 47.63 186.193 47.7744C186.317 47.9189 186.485 48 186.66 48H191.34C191.515 48 191.683 47.9189 191.807 47.7744C191.93 47.63 192 47.4342 192 47.2299V41.7701C192 41.5658 191.93 41.37 191.807 41.2255C191.683 41.0811 191.515 41 191.34 41ZM190.68 46.4598H187.32V42.5402H190.68V46.4598Z" fill="black"/>
</svg>
